<svg xmlns="http://www.w3.org/2000/svg" xmlns:xlink="http://www.w3.org/1999/xlink" xmlns:inkscape="http://www.inkscape.org/namespaces/inkscape" version="1.1" width="143.7323" height="115.3858" viewBox="0 0 143.7323 115.3858">
<path transform="matrix(1,0,0,-1,1,114.3858)" d="M60.2084 113.3858H53.8554C49.3705 112.4082 47.5838 113.1928 40.1624 110.9154 30.3375 107.9005 26.3758 104.7813 19.2161 99.2809 18.4558 98.697 17.9787 98.0178 17.2661 97.3585L13.2381 93.1088C12.5065 92.2924 12.0197 91.6622 11.4094 90.8031 6.8539 84.3868 3.2644 77.9258 1.2353 68.4133-2.3834 51.4491 2.109 34.2717 12.6119 21.0929 15.8749 16.9988 18.7897 14.1849 23.0204 11.0707 39.7962-1.2779 61.1983-3.3891 80.4441 5.2061 82.4788 6.1146 84.2145 7.344 85.8923 8.1187 84.1853 7.7913 81.7812 6.565 79.7542 5.9272 45.9584-4.7078 10.1078 20.1132 10.3521 57.0251 10.5925 93.3185 46.1826 118.3272 79.8267 107.4127 81.8768 106.7477 84.2593 105.6402 85.9595 105.1931 84.3009 106.0155 82.6648 107.2176 80.5243 108.1468 67.7276 113.7036 64.4641 112.0391 60.2084 113.3858" fill="#939598" fill-rule="evenodd"/>
<path transform="matrix(1,0,0,-1,1,114.3858)" d="M108.7821 30.3687C108.1485 29.7051 107.4416 28.7515 106.8582 28.1835 105.9888 27.3368 105.5891 26.8492 104.8014 26.1074 99.9258 21.5164 96.116 18.8906 89.0303 16.2791 63.1602 6.745 31.9201 25.8063 32.021 56.7672 32.146 95.144 78.3176 113.4456 105.0591 87.1654L109.0003 82.6821C105.4854 89.4623 95.5689 97.0333 88.0512 100.1503 57.9433 112.6344 23.1619 91.639 22.6607 57.2839 22.1584 22.8739 57.1422 .699 87.4168 12.9855 92.058 14.8689 96.5784 17.5997 99.6094 20.1844 102.3137 22.4904 107.1062 27.0051 108.7821 30.3687" fill="#f5821f" fill-rule="evenodd"/>
<path transform="matrix(1,0,0,-1,1,114.3858)" d="M79.9645 65.6362C83.3185 66.1575 88.4228 65.791 90.5525 63.921 95.1103 59.9187 95.0182 49.5351 90.5168 45.5196 88.7596 43.9517 82.76 43.1079 79.9211 43.9379ZM122.9803 66.0002 130.0609 65.9407 130.1703 39.2349 134.5164 39.2383 134.5618 65.9438 141.7323 65.9455 141.7102 70.251 122.993 70.2351ZM108.697 51.4046C108.8683 52.774 110.8344 56.9891 111.4965 58.9368 111.6592 59.4153 111.7341 59.8626 111.8738 60.3281 111.9101 60.4494 112.0533 60.8539 112.0907 60.9381 112.2627 61.3264 112.2851 61.3273 112.4425 61.5331 113.292 58.178 115.4599 54.15 115.9631 51.4125ZM99.2616 39.27 103.7945 39.2284 106.9342 47.1951 117.5278 47.2139 120.7003 39.2638 125.2502 39.2284 112.3503 71.2655C111.5053 70.3417 103.3512 49.5122 102.441 47.2918 101.628 45.3084 99.6625 41.0822 99.2616 39.27ZM75.5152 39.2207C80.9467 39.2842 88.7031 38.4922 92.6535 41.3093 100.51 46.9117 100.5279 62.6182 92.6847 68.1219 88.4823 71.0711 81.114 70.1688 75.5235 70.251Z" fill="#58595b" fill-rule="evenodd"/>
</svg>
