<?xml version="1.0" encoding="UTF-8"?>
<svg version="1.1" xmlns="http://www.w3.org/2000/svg" width="200" height="200">
<path d="M0 0 C66 0 132 0 200 0 C200 66 200 132 200 200 C134 200 68 200 0 200 C0 134 0 68 0 0 Z " fill="#00457D" transform="translate(0,0)"/>
<path d="M0 0 C7.92132233 5.60672318 14.12910479 12.86288125 16.6328125 22.4140625 C18.29370308 34.11097275 17.07585244 44.54322804 10.1875 54.3125 C3.83020357 62.04221526 -3.8263615 67.90979425 -14.06103516 69.27490234 C-22.60951516 69.95931754 -30.57187351 69.69575397 -38 65 C-39.010625 64.443125 -40.02125 63.88625 -41.0625 63.3125 C-49.08185576 56.99939015 -55.06241657 49.17231299 -57 39 C-57.83466762 26.60313344 -57.09049534 17.49730539 -48.75 7.6875 C-44.86107822 3.63336259 -41.07081657 0.43161964 -36 -2 C-35.34902344 -2.31710938 -34.69804688 -2.63421875 -34.02734375 -2.9609375 C-22.86924608 -7.5076016 -10.19768323 -6.10716794 0 0 Z " fill="#06467C" transform="translate(120,68)"/>
<path d="M0 0 C7.92132233 5.60672318 14.12910479 12.86288125 16.6328125 22.4140625 C18.29370308 34.11097275 17.07585244 44.54322804 10.1875 54.3125 C3.83020357 62.04221526 -3.8263615 67.90979425 -14.06103516 69.27490234 C-22.60951516 69.95931754 -30.57187351 69.69575397 -38 65 C-39.010625 64.443125 -40.02125 63.88625 -41.0625 63.3125 C-49.08185576 56.99939015 -55.06241657 49.17231299 -57 39 C-57.83466762 26.60313344 -57.09049534 17.49730539 -48.75 7.6875 C-44.86107822 3.63336259 -41.07081657 0.43161964 -36 -2 C-35.34902344 -2.31710938 -34.69804688 -2.63421875 -34.02734375 -2.9609375 C-22.86924608 -7.5076016 -10.19768323 -6.10716794 0 0 Z M-36 8 C-37.051875 8.7425 -38.10375 9.485 -39.1875 10.25 C-45.48240545 16.40501867 -48.14372697 22.33103681 -48.3125 31.125 C-48.33920766 39.3776665 -46.35122979 44.50674432 -41.8125 51.25 C-38.25666661 54.72681487 -34.43220411 56.81437479 -30 59 C-29.34 59.33 -28.68 59.66 -28 60 C-17.41165999 60.92647975 -9.53131451 60.08131225 -0.9765625 53.42578125 C4.53219067 48.44001097 7.49777584 43.04622103 8.4140625 35.6640625 C8.82830085 25.61333211 6.50266917 18.57025062 -0.25 11.125 C-7.60563761 4.47663524 -14.65858285 3.3287864 -24.46875 3.61328125 C-29.10206304 4.12069053 -32.26063073 5.27151286 -36 8 Z " fill="#F3F9FB" transform="translate(120,68)"/>
<path d="M0 0 C3.96 0 7.92 0 12 0 C12.33 5.94 12.66 11.88 13 18 C15.97 12.06 18.94 6.12 22 0 C25.96 0 29.92 0 34 0 C32.40950887 5.32327642 29.98261886 10.00551155 27.21484375 14.7890625 C25.58350041 17.83692207 24.91373264 19.54857353 25.5703125 22.984375 C27.20573083 26.43394589 28.86065842 29.86475924 30.625 33.25 C34 39.73214286 34 39.73214286 34 42 C30.04 42 26.08 42 22 42 C19.03 36.06 16.06 30.12 13 24 C12.67 29.94 12.34 35.88 12 42 C8.04 42 4.08 42 0 42 C0 28.14 0 14.28 0 0 Z " fill="#F0FAFC" transform="translate(83,79)"/>
<path d="M0 0 C2.97 0 5.94 0 9 0 C8.7834375 0.64582031 8.566875 1.29164062 8.34375 1.95703125 C4.53790524 14.83699663 4.21740675 29.33182146 9 42 C6.03 42 3.06 42 0 42 C-2.66666667 36.66666667 -5.33333333 31.33333333 -8 26 C-8.3719751 25.30511475 -8.7439502 24.61022949 -9.12719727 23.89428711 C-10.40249668 21.12644147 -9.94444509 19.90629668 -9 17 C-7.59196162 13.99917802 -6.0286899 11.09452841 -4.4375 8.1875 C-4.01275391 7.39923828 -3.58800781 6.61097656 -3.15039062 5.79882812 C-2.10607517 3.86273768 -1.05381776 1.93093477 0 0 Z " fill="#F1F8FA" transform="translate(43,79)"/>
<path d="M0 0 C2.97 0 5.94 0 9 0 C10.74122921 3.19150752 12.43673496 6.4052054 14.125 9.625 C14.86556641 10.98044922 14.86556641 10.98044922 15.62109375 12.36328125 C19.12310449 19.12068225 19.12310449 19.12068225 18.5625 23.125 C18.046875 24.07375 17.53125 25.0225 17 26 C16.34957474 27.36103101 15.70129844 28.72309021 15.0546875 30.0859375 C14.3322353 31.51770641 13.60559578 32.94736937 12.875 34.375 C12.50246094 35.11105469 12.12992188 35.84710938 11.74609375 36.60546875 C10.8343878 38.40550358 9.91770068 40.20301402 9 42 C6.03 42 3.06 42 0 42 C0.2165625 41.2471875 0.433125 40.494375 0.65625 39.71875 C3.78594398 27.77954702 4.38920846 15.9619122 1 4 C0.67 2.68 0.34 1.36 0 0 Z " fill="#F7FBFC" transform="translate(148,79)"/>
<path d="M0 0 C3.3 0 6.6 0 10 0 C10 13.2 10 26.4 10 40 C6.7 40 3.4 40 0 40 C0 26.8 0 13.6 0 0 Z " fill="#FCFEFE" transform="translate(84,80)"/>
<path d="M0 0 C3.3 0 6.6 0 10 0 C9.25130208 2.21354167 8.50260417 4.42708333 7.75390625 6.640625 C7.38072266 7.80851562 7.38072266 7.80851562 7 9 C6.80921875 9.59039062 6.6184375 10.18078125 6.421875 10.7890625 C4.68619133 19.88533061 5.00766072 29.88009097 9.125 38.21484375 C10 40 10 40 10 42 C6.7 42 3.4 42 0 42 C-5.08425209 31.1959643 -5.91503831 18.89127855 -3.09375 7.265625 C-2 4.25 -2 4.25 0 0 Z " fill="#EFF7FA" transform="translate(55,79)"/>
<path d="M0 0 C3.3 0 6.6 0 10 0 C16.11389827 14.16568394 15.53542064 27.79077291 10 42 C6.7 42 3.4 42 0 42 C0.47859241 40.39566191 0.95789558 38.79153584 1.4375 37.1875 C1.70433594 36.29417969 1.97117188 35.40085938 2.24609375 34.48046875 C2.80387873 32.64526945 3.39344575 30.81966274 4 29 C4.62439516 20.07421995 4.5027692 12.37789309 0.875 4.0390625 C0 2 0 2 0 0 Z " fill="#F1F9FC" transform="translate(135,79)"/>
<path d="M0 0 C0 0.66 0 1.32 0 2 C0.99 2 1.98 2 3 2 C3.22537111 5.12401779 3.42738648 8.24911333 3.625 11.375 C3.68945312 12.26445313 3.75390625 13.15390625 3.8203125 14.0703125 C3.871875 14.92109375 3.9234375 15.771875 3.9765625 16.6484375 C4.02893066 17.43395996 4.08129883 18.21948242 4.13525391 19.02880859 C4 21 4 21 2 23 C2 16.4 2 9.8 2 3 C-1.96 3 -5.92 3 -10 3 C-10 16.86 -10 30.72 -10 45 C-6.04 45 -2.08 45 2 45 C2 38.4 2 31.8 2 25 C2.99 26.32 3.98 27.64 5 29 C4.34 29.33 3.68 29.66 3 30 C3 35.28 3 40.56 3 46 C0.875625 46.185625 -1.24875 46.37125 -3.4375 46.5625 C-5.22994141 46.71912109 -5.22994141 46.71912109 -7.05859375 46.87890625 C-8.02925781 46.91886719 -8.99992187 46.95882812 -10 47 C-11.54156555 45.45843445 -11.13468494 44.02554236 -11.14526367 41.87915039 C-11.15164352 41.00476822 -11.15802338 40.13038605 -11.16459656 39.22950745 C-11.16570938 38.27849655 -11.1668222 37.32748566 -11.16796875 36.34765625 C-11.17129715 35.37718857 -11.17462555 34.40672089 -11.17805481 33.40684509 C-11.1831283 31.3497668 -11.18546301 29.29268025 -11.18530273 27.2355957 C-11.18748826 24.07945256 -11.20563691 20.92365929 -11.22460938 17.76757812 C-11.22754333 15.7734387 -11.22952811 13.77929761 -11.23046875 11.78515625 C-11.23765427 10.83616959 -11.24483978 9.88718292 -11.25224304 8.90943909 C-11.24916641 8.03190475 -11.24608978 7.15437042 -11.24291992 6.25024414 C-11.24434494 5.4760463 -11.24576996 4.70184845 -11.24723816 3.90419006 C-11 2 -11 2 -9 0 C-5.7295226 -1.24052591 -3.35038257 -0.83759564 0 0 Z " fill="#134168" transform="translate(93,76)"/>
<path d="M0 0 C6.24307665 6.83765538 6.7227711 15.99844972 6.4375 24.82421875 C5.96524806 31.29497853 3.58177969 37.09878927 1 43 C0.01 42.34 -0.98 41.68 -2 41 C-1.79503906 40.39671875 -1.59007812 39.7934375 -1.37890625 39.171875 C-1.10949219 38.37265625 -0.84007812 37.5734375 -0.5625 36.75 C-0.29566406 35.96109375 -0.02882812 35.1721875 0.24609375 34.359375 C3.40631463 24.46935732 2.86710833 14.57760508 -1 5 C-1.35397944 3.6719987 -1.69335242 2.33972242 -2 1 C-1.34 0.67 -0.68 0.34 0 0 Z " fill="#26577E" transform="translate(134,79)"/>
<path d="M0 0 C5.70582183 5.96517737 5.35146092 15.05488869 5.38354492 22.81738281 C5.2265884 29.65263796 3.44873633 35.61579456 1 42 C0.01 41.67 -0.98 41.34 -2 41 C-1.7834375 40.33097656 -1.566875 39.66195312 -1.34375 38.97265625 C2.31366404 26.3579643 2.50838398 13.42489157 -2 1 C-1.34 0.67 -0.68 0.34 0 0 Z " fill="#1B4C73" transform="translate(147,79)"/>
<path d="M0 0 C0.99 0.33 1.98 0.66 3 1 C2.71125 1.56203125 2.4225 2.1240625 2.125 2.703125 C-2.83334958 13.92827753 -1.98061274 27.08411846 0 39 C-0.99 39 -1.98 39 -3 39 C-4.85473468 33.47274288 -5.35097153 28.56444708 -5.3125 22.75 C-5.30976074 21.91605713 -5.30702148 21.08211426 -5.30419922 20.22290039 C-5.04797042 5.04797042 -5.04797042 5.04797042 0 0 Z " fill="#1C4E78" transform="translate(53,78)"/>
<path d="M0 0 C-1.97192688 5.32420256 -6.42484242 8.0864086 -11.125 10.8125 C-16.15099975 12.8319762 -21.6883949 12.23548988 -27 12 C-27 11.67 -27 11.34 -27 11 C-20.565 10.505 -20.565 10.505 -14 10 C-15.32 8.35 -16.64 6.7 -18 5 C-13.71 5 -9.42 5 -5 5 C-5.66 3.35 -6.32 1.7 -7 0 C-3.98968256 -0.93423645 -3.13349732 -1.04449911 0 0 Z " fill="#124774" transform="translate(122,116)"/>
<path d="M0 0 C0.33 0 0.66 0 1 0 C1.09796875 1.05058594 1.1959375 2.10117188 1.296875 3.18359375 C2.40438045 13.9682814 4.6050143 22.09269849 11 31 C6.35598906 29.36832048 4.08316016 27.80333099 1.54296875 23.57421875 C-2.40733354 15.16132712 -2.08110515 8.96068205 0 0 Z " fill="#194E78" transform="translate(62,95)"/>
<path d="M0 0 C0.99 0 1.98 0 3 0 C2.72285156 0.68707031 2.44570312 1.37414062 2.16015625 2.08203125 C-2.807878 14.2819109 -2.807878 14.2819109 -4.76171875 27.20703125 C-4.84035156 27.79871094 -4.91898438 28.39039062 -5 29 C-5.66 29.33 -6.32 29.66 -7 30 C-7.72053446 19.464185 -6.45542694 11.55891598 -2 2 C-1.34 1.34 -0.68 0.68 0 0 Z " fill="#0E4473" transform="translate(67,76)"/>
<path d="M0 0 C0.33 0 0.66 0 1 0 C1.06058594 1.00160156 1.12117188 2.00320312 1.18359375 3.03515625 C1.26808405 4.37761331 1.35272768 5.72006072 1.4375 7.0625 C1.55931641 9.02896484 1.55931641 9.02896484 1.68359375 11.03515625 C1.97898249 14.73663238 2.43265388 18.33370448 3 22 C2.01 22 1.02 22 0 22 C-2.58411908 14.40915019 -3.10285883 7.5632184 0 0 Z " fill="#1C4D73" transform="translate(50,95)"/>
<path d="M0 0 C0.99 0 1.98 0 3 0 C3.33 1.32 3.66 2.64 4 4 C7.63 4 11.26 4 15 4 C15 4.33 15 4.66 15 5 C12.85529407 5.36093104 10.70919203 5.71357589 8.5625 6.0625 C7.36753906 6.25972656 6.17257813 6.45695312 4.94140625 6.66015625 C3.97074219 6.77230469 3.00007813 6.88445312 2 7 C1.67 6.67 1.34 6.34 1 6 C-0.68608966 5.92794489 -2.37500659 5.91613932 -4.0625 5.9375 C-4.98160156 5.94652344 -5.90070312 5.95554687 -6.84765625 5.96484375 C-7.55792969 5.97644531 -8.26820312 5.98804687 -9 6 C-9 5.34 -9 4.68 -9 4 C-5.7 4 -2.4 4 1 4 C0.67 2.68 0.34 1.36 0 0 Z " fill="#0E4471" transform="translate(51,117)"/>
<path d="M0 0 C-0.33 0.66 -0.66 1.32 -1 2 C-8.41017023 2.11459026 -15.64206267 1.91160286 -23 1 C-23 0.34 -23 -0.32 -23 -1 C-22.09636719 -0.98839844 -21.19273437 -0.97679688 -20.26171875 -0.96484375 C-18.49248047 -0.95130859 -18.49248047 -0.95130859 -16.6875 -0.9375 C-15.51574219 -0.92589844 -14.34398437 -0.91429688 -13.13671875 -0.90234375 C-3.59794989 -1.19931663 -3.59794989 -1.19931663 0 0 Z " fill="#0C426E" transform="translate(158,78)"/>
<path d="M0 0 C-1.44077046 3.36179774 -3.24750021 5.59156268 -6 8 C-6.66 8 -7.32 8 -8 8 C-8.4021875 8.8353125 -8.4021875 8.8353125 -8.8125 9.6875 C-10.10122647 12.19712523 -11.52926478 14.59334236 -13 17 C-13.33 16.01 -13.66 15.02 -14 14 C-11.65385112 9.71850651 -5.13952365 0 0 0 Z " fill="#E6F6FA" transform="translate(80,69)"/>
<path d="M0 0 C0.33 0 0.66 0 1 0 C1.36148552 2.95760879 1.71449116 5.91580226 2.0625 8.875 C2.16626953 9.71675781 2.27003906 10.55851562 2.37695312 11.42578125 C2.47041016 12.23144531 2.56386719 13.03710938 2.66015625 13.8671875 C2.74918213 14.61081543 2.83820801 15.35444336 2.92993164 16.12060547 C3 18 3 18 2 20 C1.34 20 0.68 20 0 20 C-0.36116046 18.5225254 -0.71375048 17.04295325 -1.0625 15.5625 C-1.25972656 14.73878906 -1.45695312 13.91507813 -1.66015625 13.06640625 C-1.82837891 12.04353516 -1.82837891 12.04353516 -2 11 C-1.67 10.67 -1.34 10.34 -1 10 C-0.76712992 8.31816052 -0.58735834 6.6287584 -0.4375 4.9375 C-0.35371094 4.01839844 -0.26992188 3.09929687 -0.18359375 2.15234375 C-0.12300781 1.44207031 -0.06242187 0.73179688 0 0 Z " fill="#2C5A82" transform="translate(62,95)"/>
<path d="M0 0 C3.04843621 4.57265431 2.32887593 9.12214604 2.3125 14.5 C2.32861328 15.55832031 2.34472656 16.61664063 2.36132812 17.70703125 C2.36229492 19.22876953 2.36229492 19.22876953 2.36328125 20.78125 C2.36626221 21.71001953 2.36924316 22.63878906 2.37231445 23.59570312 C1.93871476 26.39576202 1.18223782 27.26603876 -1 29 C-0.83628906 27.906875 -0.67257813 26.81375 -0.50390625 25.6875 C0.15009907 20.45545742 0.10970402 15.26506338 0.0625 10 C0.05798828 9.03449219 0.05347656 8.06898437 0.04882812 7.07421875 C0.03715417 4.71607911 0.02078021 2.35807398 0 0 Z " fill="#DBEFF7" transform="translate(151,87)"/>
<path d="M0 0 C4.24822374 0.47202486 6.19989709 2.96655518 9 6 C8.67 6.66 8.34 7.32 8 8 C6.35 7.67 4.7 7.34 3 7 C3.33 5.68 3.66 4.36 4 3 C-2.435 3.495 -2.435 3.495 -9 4 C-9 3.34 -9 2.68 -9 2 C-6.03 2 -3.06 2 0 2 C0 1.34 0 0.68 0 0 Z " fill="#12446C" transform="translate(113,76)"/>
<path d="M0 0 C3.14958831 3.42346555 3.56179109 6.44262737 4 11 C3.01 11.33 2.02 11.66 1 12 C0.01 8.37 -0.98 4.74 -2 1 C-1.34 0.67 -0.68 0.34 0 0 Z " fill="#22547C" transform="translate(147,79)"/>
<path d="M0 0 C1.16015625 0.22042969 2.3203125 0.44085938 3.515625 0.66796875 C5.27132812 0.98701172 5.27132812 0.98701172 7.0625 1.3125 C8.40054688 1.58126953 8.40054688 1.58126953 9.765625 1.85546875 C9.765625 2.18546875 9.765625 2.51546875 9.765625 2.85546875 C4.155625 2.85546875 -1.454375 2.85546875 -7.234375 2.85546875 C-3.234375 -0.14453125 -3.234375 -0.14453125 0 0 Z " fill="#1A4D76" transform="translate(98.234375,60.14453125)"/>
<path d="M0 0 C0.66 0 1.32 0 2 0 C3.17673198 2.35346396 3.16623866 3.8806033 3.1875 6.5 C3.20167969 7.2940625 3.21585938 8.088125 3.23046875 8.90625 C3 11 3 11 1 13 C0.67 8.71 0.34 4.42 0 0 Z " fill="#114872" transform="translate(149,90)"/>
<path d="M0 0 C0.33 0 0.66 0 1 0 C1.08142927 1.7492214 1.13938541 3.49954542 1.1875 5.25 C1.23970703 6.71179688 1.23970703 6.71179688 1.29296875 8.203125 C0.96075202 11.37468742 0.11327721 12.67040307 -2 15 C-2.21755666 9.5610835 -2.10428384 5.12919186 0 0 Z " fill="#2E5E85" transform="translate(50,95)"/>
<path d="M0 0 C-0.66 0 -1.32 0 -2 0 C-1.67 1.65 -1.34 3.3 -1 5 C-1.66 5 -2.32 5 -3 5 C-3 4.34 -3 3.68 -3 3 C-5.31 3 -7.62 3 -10 3 C-6.81859267 -0.48439851 -4.56758339 -1.41752588 0 0 Z " fill="#215483" transform="translate(96,73)"/>
<path d="M0 0 C2.32789515 2.83395931 3.07377893 4.29511572 4 8 C0.04 8 -3.92 8 -8 8 C-8 7.67 -8 7.34 -8 7 C-5.36 6.67 -2.72 6.34 0 6 C0 4.02 0 2.04 0 0 Z " fill="#CEE8F6" transform="translate(113,113)"/>
<path d="M0 0 C0.99 0.33 1.98 0.66 3 1 C3.36972539 8.5177495 3.36972539 8.5177495 1.5625 10.875 C1.046875 11.24625 0.53125 11.6175 0 12 C-0.33 12.66 -0.66 13.32 -1 14 C-1.66 13.67 -2.32 13.34 -3 13 C-2.69964844 12.48050781 -2.39929688 11.96101563 -2.08984375 11.42578125 C0.41677689 6.98026617 0.41677689 6.98026617 0.75 2 C0.5025 1.34 0.255 0.68 0 0 Z " fill="#1B4E77" transform="translate(165,96)"/>
<path d="M0 0 C0.33 0 0.66 0 1 0 C0.88648483 1.81325551 0.75887039 3.62563357 0.625 5.4375 C0.55539063 6.44683594 0.48578125 7.45617187 0.4140625 8.49609375 C0.27742188 9.32238281 0.14078125 10.14867188 0 11 C-0.99 11.495 -0.99 11.495 -2 12 C-2.05395478 10.37536158 -2.09277195 8.75021459 -2.125 7.125 C-2.14820313 6.22007813 -2.17140625 5.31515625 -2.1953125 4.3828125 C-2 2 -2 2 0 0 Z " fill="#11466F" transform="translate(50,89)"/>
<path d="M0 0 C2 3 2 3 3 5 C2.0409375 5.37125 2.0409375 5.37125 1.0625 5.75 C-1.18741541 6.81562433 -1.18741541 6.81562433 -1.75 9.125 C-1.8325 9.74375 -1.915 10.3625 -2 11 C-2.66 11 -3.32 11 -4 11 C-3.48964169 6.6109185 -2.47785723 3.66291938 0 0 Z " fill="#235780" transform="translate(76,84)"/>
<path d="M0 0 C0.33 0 0.66 0 1 0 C1 3.3 1 6.6 1 10 C0.67 8.68 0.34 7.36 0 6 C-1.32 6.33 -2.64 6.66 -4 7 C-2.92598892 4.08482708 -2.22189824 2.22189824 0 0 Z " fill="#164C7A" transform="translate(81,78)"/>
<path d="M0 0 C2.97 0.99 5.94 1.98 9 3 C8.67 3.99 8.34 4.98 8 6 C6.35 6 4.7 6 3 6 C3.33 4.68 3.66 3.36 4 2 C2.68 1.67 1.36 1.34 0 1 C0 0.67 0 0.34 0 0 Z " fill="#164D7C" transform="translate(105,72)"/>
<path d="M0 0 C0.33 0.66 0.66 1.32 1 2 C0 5 0 5 -2.3125 6.25 C-5 7 -5 7 -9 6 C-6.03 4.02 -3.06 2.04 0 0 Z " fill="#21527C" transform="translate(125,127)"/>
<path d="M0 0 C2 3 2 3 3 7 C0.03 7 -2.94 7 -6 7 C-3 5 -3 5 0 5 C0 3.35 0 1.7 0 0 Z " fill="#CEE9F7" transform="translate(49,114)"/>
<path d="M0 0 C2.97 0 5.94 0 9 0 C9 0.66 9 1.32 9 2 C6.36 2.66 3.72 3.32 1 4 C0.67 2.68 0.34 1.36 0 0 Z " fill="#DAF3FD" transform="translate(148,79)"/>
<path d="M0 0 C3.96 0 7.92 0 12 0 C11.34 1.98 10.68 3.96 10 6 C9.835 5.360625 9.67 4.72125 9.5 4.0625 C8.218214 1.83880759 8.218214 1.83880759 6.0859375 1.51171875 C4.06424845 1.2724022 2.03158061 1.13106972 0 1 C0 0.67 0 0.34 0 0 Z " fill="#CEEAF8" transform="translate(105,79)"/>
<path d="M0 0 C0.99 0 1.98 0 3 0 C2.34 2.31 1.68 4.62 1 7 C0.01 6.67 -0.98 6.34 -2 6 C-1.34 4.02 -0.68 2.04 0 0 Z " fill="#1C4C76" transform="translate(63,84)"/>
<path d="M0 0 C0 0.66 0 1.32 0 2 C-1.98 2.66 -3.96 3.32 -6 4 C-6.66 3.01 -7.32 2.02 -8 1 C-2.25 -1.125 -2.25 -1.125 0 0 Z " fill="#0C4B7F" transform="translate(127,66)"/>
<path d="M0 0 C0.33 0.99 0.66 1.98 1 3 C1.66 3.33 2.32 3.66 3 4 C2.34 5.65 1.68 7.3 1 9 C0.01 8.67 -0.98 8.34 -2 8 C-1.34 5.36 -0.68 2.72 0 0 Z " fill="#255882" transform="translate(147,112)"/>
<path d="M0 0 C0.66 0 1.32 0 2 0 C2.125 5.75 2.125 5.75 1 8 C0.34 8 -0.32 8 -1 8 C-1.125 2.25 -1.125 2.25 0 0 Z " fill="#1C4B75" transform="translate(137,105)"/>
<path d="M0 0 C0.66 0.33 1.32 0.66 2 1 C1.25 6.75 1.25 6.75 -1 9 C-2.25541557 5.23375329 -1.37061958 3.62811066 0 0 Z " fill="#1D507C" transform="translate(126,103)"/>
<path d="M0 0 C0.66 0.33 1.32 0.66 2 1 C-2.14285714 7.42857143 -2.14285714 7.42857143 -5 10 C-4.49701212 5.59885603 -2.91227269 3.28804981 0 0 Z " fill="#D8EAF3" transform="translate(71,76)"/>
<path d="M0 0 C2.97 0 5.94 0 9 0 C6.64031256 2.09749995 5.45383006 2.96905704 2.25 3.1875 C1.13625 3.0946875 1.13625 3.0946875 0 3 C0 2.01 0 1.02 0 0 Z " fill="#0D406E" transform="translate(148,121)"/>
<path d="M0 0 C2.625 0.25 2.625 0.25 4.4375 1.75 C4.829375 2.245 5.22125 2.74 5.625 3.25 C2.8125 3.9375 2.8125 3.9375 -0.375 4.25 C-2.25 2.8125 -2.25 2.8125 -3.375 1.25 C-2.375 0.25 -2.375 0.25 0 0 Z " fill="#124C7E" transform="translate(87.375,121.75)"/>
<path d="M0 0 C0.66 0 1.32 0 2 0 C0.84414715 3.91211733 -0.35534962 6.8745041 -3 10 C-2.39009109 6.44219804 -1.4216319 3.3171411 0 0 Z " fill="#DDF2FA" transform="translate(163,103)"/>
<path d="M0 0 C0.66 0.33 1.32 0.66 2 1 C0.68 3.64 -0.64 6.28 -2 9 C-2.66 8.67 -3.32 8.34 -4 8 C-4 7.34 -4 6.68 -4 6 C-3.34 6 -2.68 6 -2 6 C-1.855625 5.195625 -1.71125 4.39125 -1.5625 3.5625 C-1 1 -1 1 0 0 Z " fill="#E0F3F9" transform="translate(110,90)"/>
<path d="M0 0 C0.33 0 0.66 0 1 0 C1.33 3.3 1.66 6.6 2 10 C1.01 9.01 0.02 8.02 -1 7 C-0.6875 3.3125 -0.6875 3.3125 0 0 Z " fill="#144F80" transform="translate(80,112)"/>
<path d="M0 0 C2.04296875 0.4609375 2.04296875 0.4609375 4.1875 1.375 C4.90292969 1.67148438 5.61835937 1.96796875 6.35546875 2.2734375 C7.16951172 2.63308594 7.16951172 2.63308594 8 3 C5.36749612 4.31625194 4.19820944 3.74813658 1.375 3.0625 C0.14910156 2.77052734 0.14910156 2.77052734 -1.1015625 2.47265625 C-2.04128906 2.23869141 -2.04128906 2.23869141 -3 2 C-2.01 1.34 -1.02 0.68 0 0 Z " fill="#0A3F6B" transform="translate(46,76)"/>
</svg>
